<svg xmlns="http://www.w3.org/2000/svg" xmlns:xlink="http://www.w3.org/1999/xlink" xmlns:inkscape="http://www.inkscape.org/namespaces/inkscape" version="1.1" width="249" height="80" viewBox="0 0 249 80">
<defs>
<path id="font_1_82" d="M.55400088 0V.04399109H.5039978C.397995 .04399109 .397995 .054977418 .397995 .08596802V.6358185C.397995 .6660156 .394989 .6660156 .3619995 .6660156 .29100038 .6016083 .17999268 .6016083 .1599884 .6016083H.14299011V.5576172H.1599884C.18299866 .5576172 .24798584 .5606079 .30599977 .58561709V.08596802C.30599977 .054977418 .30599977 .04399109 .19999695 .04399109H.1499939V0C.20498657 .0039978029 .2939911 .0039978029 .35198976 .0039978029 .4099884 .0039978029 .49899293 .0039978029 .55400088 0Z"/>
<path id="font_1_107" d="M.58898928 .19299317H.5469971C.5439911 .17399597 .5339966 .11199951 .5179901 .101989749 .5099945 .09599304 .42599488 .09599304 .41099549 .09599304H.21499634C.2809906 .14498902 .35499574 .20098877 .4149933 .24099732 .5049896 .30300904 .58898928 .3610077 .58898928 .4670105 .58898928 .5950012 .46798707 .6660156 .32499696 .6660156 .18998719 .6660156 .09098816 .58795168 .09098816 .48986817 .09098816 .4378662 .1349945 .42886354 .14898682 .42886354 .17599488 .42886354 .20799256 .4468689 .20799256 .48786927 .20799256 .52386477 .18199158 .543869 .15098572 .546875 .1789856 .59194949 .23699951 .6220093 .3039856 .6220093 .40098573 .6220093 .48199464 .5639038 .48199464 .4658661 .48199464 .3818817 .42399598 .31791688 .34700013 .2529297L.102996829 .04598999C.09298706 .036987306 .09199524 .036987306 .09098816 .02999878V0H.55599978L.58898928 .19299317Z"/>
<path id="font_1_106" d="M.59999087 .17382813C.59999087 .25582887 .5269928 .32583619 .41299439 .35183717 .5329895 .39083863 .5649872 .46684266 .5649872 .5228424 .5649872 .60491946 .46299745 .6660156 .33699037 .6660156 .21398926 .6660156 .114990238 .61395266 .114990238 .5238342 .114990238 .47683717 .15299988 .46484376 .17199707 .46484376 .20098877 .46484376 .22898865 .48583985 .22898865 .5218353 .22898865 .5448303 .21699524 .5728302 .18099976 .57884219 .22399903 .625 .31298829 .628006 .33399964 .628006 .40699769 .628006 .45899964 .5908661 .45899964 .5228424 .45899964 .46484376 .42099 .37384034 .31599427 .36782838 .28799439 .36683656 .28399659 .36582948 .2579956 .36483766 .24699402 .36383058 .23599243 .36283876 .23599243 .34783937 .23599243 .3310547 .24598694 .3310547 .2639923 .3310547H.32998658C.42199708 .3310547 .48298646 .2737732 .48298646 .17437744 .48298646 .07237244 .41999818 .01852417 .33099366 .01852417 .31999208 .01852417 .20098877 .01852417 .1499939 .070373538 .19099427 .07637024 .20298767 .1073761 .20298767 .13137818 .20298767 .16838074 .1749878 .19238281 .14199829 .19238281 .10998535 .19238281 .07998657 .17137146 .07998657 .12937927 .07998657 .025512696 .19799805-.022460938 .33399964-.022460938 .49798585-.022460938 .59999087 .07637024 .59999087 .17337036V.17382813Z"/>
<path id="font_1_57" d="M.61698916 .1630249V.20703125H.49198915V.6467743C.49198915 .6707611 .4909973 .6767578 .46499635 .6767578 .44499208 .6767578 .44400025 .67575076 .43299867 .6617584L.06298828 .20703125V.1630249H.3959961V.085006717C.3959961 .054000856 .3959961 .04399109 .30899049 .04399109H.27398683V0L.44400025 .0039978029 .6139984 0V.04399109H.57899478C.49198915 .04399109 .49198915 .054000856 .49198915 .085006717V.1630249H.61698916M.4039917 .20703125H.10998535L.4039917 .56881716V.20703125Z"/>
<path id="font_1_56" d="M.58898928 .20191956C.58898928 .3149109 .49198915 .41992188 .35299684 .41992188 .2899933 .41993714 .23899842 .4039154 .19599915 .37088014V.55107119C.24899292 .53808596 .2939911 .53808596 .30499269 .53808596 .37298585 .53808596 .4229889 .55807498 .44898988 .5720825 .47299195 .5840759 .54100039 .6270752 .54100039 .64904788 .54100039 .6640167 .5299988 .6660156 .5269928 .6660156 .5269928 .6660156 .522995 .6660156 .5119934 .661026 .47399903 .6480408 .4119873 .634079 .34599305 .634079 .2889862 .634079 .23399353 .6440582 .18099976 .6620178 .16999817 .6660156 .1659851 .6660156 .1659851 .6660156 .1519928 .6660156 .1519928 .6540375 .1519928 .6380768V.33789063C.1519928 .3209076 .1519928 .3079071 .17098999 .3079071 .18199158 .3079071 .18299866 .30992127 .19198609 .3209076 .22999573 .36489869 .2829895 .3869171 .35099793 .3869171 .40899659 .3869171 .44099427 .35289 .45498658 .3318634 .47799684 .2978363 .48298646 .25279237 .48298646 .20477295 .48298646 .1627655 .47898866 .10676575 .43998719 .06765747 .394989 .02154541 .33799745 .01852417 .31599427 .01852417 .25099183 .01852417 .17799378 .04660034 .14698792 .10575867 .18899536 .10876465 .20298767 .13876343 .20298767 .16175843 .20298767 .19377136 .1789856 .21777344 .14698792 .21777344 .125 .21777344 .09098816 .20477295 .09098816 .1587677 .09098816 .060638429 .18699646-.022460938 .31799317-.022460938 .46699525-.022537232 .58898928 .07745361 .58898928 .20146179V.20191956Z"/>
<path id="font_1_101" d="M.59999087 .20472718C.59999087 .2657318 .5799866 .31472779 .5279999 .36073304 .48399354 .40072633 .43798829 .42773438 .35099793 .42773438 .29299928 .42773438 .22799683 .39971925 .18598938 .32772828 .18699646 .37373353 .18798828 .45272828 .22399903 .517746 .25299073 .5718231 .31799317 .628006 .41099549 .628006 .42999269 .628006 .47499085 .6260071 .5049896 .60191348 .4889984 .5979004 .46299745 .5828552 .46299745 .54875186 .46299745 .51708987 .4869995 .49609376 .5159912 .49609376 .5329895 .4957428 .56900027 .5047455 .56900027 .5517578 .56900027 .60598757 .5309906 .6660156 .4099884 .6660156 .23799134 .6660156 .07998657 .5249176 .07998657 .31776429 .07998657 .07858276 .19699097-.022460938 .34298707-.022460938 .44198609-.022460938 .4889984 .014526367 .522995 .042556764 .58699038 .095565799 .59999087 .15460205 .59999087 .20463562V.20472718M.49398805 .20562744C.49398805 .14759827 .49398805 .109573367 .46199037 .06956482 .43399049 .0365448 .39898683 .01852417 .34298707 .01852417 .18899536 .01852417 .18899536 .18461609 .18899536 .2266388 .18899536 .30368043 .24398804 .39372254 .34899903 .39372254 .3999939 .3939972 .43199159 .3809967 .46299745 .34098817 .49299623 .3039856 .49398805 .2619934 .49398805 .20599365V.20562744Z"/>
<path id="font_1_100" d="M.6349945 .6158447V.6438446H.3929901C.36698915 .6438446 .22099304 .6478424 .20298767 .65083315 .17999268 .65582278 .1789856 .665802 .1769867 .67578127H.1349945L.09700012 .4507904H.13899231C.14099121 .46580506 .1519928 .530838 .16899109 .5418396 .1749878 .5468445 .2689972 .54785159 .28399659 .54785159H.5219879C.47999574 .49882508 .42599488 .4447937 .3869934 .3957672 .2679901 .24368286 .25299073 .099594119 .25299073 .03855896 .25299073-.016464234 .28799439-.022460938 .30599977-.022460938 .35899354-.022460938 .35899354 .028564454 .35899354 .04057312V.060577394C.35899354 .23867798 .39698792 .34873963 .45700074 .41477967L.625 .59983828C.6339874 .60884097 .6339874 .61083987 .6349945 .6158447Z"/>
<path id="font_1_51" d="M.59999087 .17100525C.59999087 .28001405 .49598695 .3310089 .42900086 .3610077 .5319977 .40400697 .5649872 .45700074 .5649872 .51400759 .5649872 .6180115 .44999696 .6660156 .34098817 .6660156 .21699524 .6660156 .114990238 .5960083 .114990238 .4960022 .114990238 .40382386 .19400025 .36279298 .24598694 .3357849 .13999939 .29473878 .07998657 .23570252 .07998657 .15364075 .07998657 .03353882 .21299744-.022460938 .33898927-.022460938 .47898866-.022460938 .59999087 .05255127 .59999087 .1706543V.17100525M.5029907 .51290896C.5029907 .42485047 .3880005 .38381959 .3880005 .38381959 .3880005 .38381959 .38598634 .38381959 .3769989 .38882447L.23298645 .46287538C.18998719 .4848938 .1769867 .51091006 .1769867 .53492739 .1769867 .59898379 .25898744 .628006 .33898927 .628006 .4189911 .62753298 .5029907 .5885315 .5029907 .51252749V.51290896M.5309906 .13453675C.5309906 .053527833 .42999269 .01852417 .34098817 .01852417 .25 .01852417 .14898682 .0635376 .14898682 .15452576 .14898682 .25352479 .25698854 .29953004 .2889862 .3135376L.44400025 .23452759C.47999574 .21598816 .5309906 .18899536 .5309906 .1349945V.13453675Z"/>
<path id="font_1_64" d="M.37399293 .17689514V.25390626H.041992189V.17689514H.37399293Z"/>
<path id="font_1_121" d="M.6009979 .31976319C.6009979 .3918152 .6009979 .6660156 .33999635 .6660156 .07899475 .6660156 .07899475 .3918152 .07899475 .31976319 .07899475 .2467041 .07899475-.022460938 .33999635-.022460938 .6009979-.022460938 .6009979 .2467041 .6009979 .31976319M.5009918 .33177186C.5009918 .26371766 .5009918 .18266297 .48599244 .12261963 .45999146 .025543213 .37998963 .010528564 .33999635 .010528564 .30299378 .010528564 .21899414 .023544312 .19400025 .12461853 .17999268 .17866516 .1789856 .24971009 .1789856 .33177186 .1789856 .405838 .1789856 .47488404 .19499207 .5319214 .21998596 .6159973 .29699708 .63301089 .33999635 .63301089 .4139862 .63301089 .46699525 .5949707 .4869995 .5249176 .5009918 .47387696 .5009918 .39082337 .5009918 .33177186Z"/>
<path id="font_2_2" d="M.20599365 .3996582H.2999878C.31999208 .3996582 .32998658 .3996582 .32998658 .41966249 .32998658 .43066407 .31999208 .43066407 .3019867 .43066407H.21398926C.25 .5724945 .25498963 .59246829 .25498963 .59846499 .25498963 .61546328 .24299622 .62545779 .22599793 .62545779 .22299195 .62545779 .19499207 .62446597 .18598938 .58947756L.14698792 .43066407H.052993776C.032989503 .43066407 .022994996 .43066407 .022994996 .4116516 .022994996 .3996582 .0309906 .3996582 .050994874 .3996582H.13899231C.066986087 .11608887 .06298828 .099121097 .06298828 .08114624 .06298828 .02722168 .100997928-.0107421879 .15499878-.0107421879 .25698854-.0107421879 .31399537 .13505554 .31399537 .14305115 .31399537 .1530304 .30599977 .1530304 .3019867 .1530304 .29299928 .1530304 .2919922 .15003968 .2869873 .13905335 .24398804 .035217287 .19099427 .011245728 .15699768 .011245728 .13598633 .011245728 .12599182 .024230957 .12599182 .057174684 .12599182 .08114624 .12799073 .088134769 .13198853 .10510254L.20599365 .3996582Z"/>
<path id="font_2_3" d="M.48599244 .38136292C.48999024 .39537049 .48999024 .39736939 .48999024 .40437318 .48999024 .42237855 .47599793 .43138124 .46099855 .43138124 .45098878 .43138124 .43499757 .42536927 .42599488 .41036988 .42399598 .405365 .41600038 .37435914 .4119873 .35635377 .40499879 .33035279 .397995 .30334474 .3919983 .27633668L.34700013 .09628296C.34298707 .08126831 .2999878 .011245728 .23399353 .011245728 .18299866 .011245728 .17199707 .055267335 .17199707 .0922699 .17199707 .1382904 .18899536 .20030213 .22299195 .28833009 .23899842 .3293457 .24299622 .3403473 .24299622 .36035157 .24299622 .405365 .21099854 .4423828 .16099549 .4423828 .06599426 .4423828 .0289917 .29733277 .0289917 .28833009 .0289917 .27833558 .038986207 .27833558 .040985109 .27833558 .050994874 .27833558 .051986696 .28033448 .056991579 .29634095 .083999637 .3903656 .12399292 .42037965 .1579895 .42037965 .1659851 .42037965 .18299866 .42037965 .18299866 .3883667 .18299866 .36335755 .17298889 .3373413 .1659851 .31834413 .12599182 .21231079 .10798645 .1552887 .10798645 .10827637 .10798645 .019256592 .17098999-.0107421879 .22999573-.0107421879 .2689972-.0107421879 .30299378 .0062561037 .33099366 .03425598 .31799317-.017745972 .30599977-.06674194 .2659912-.11973572 .23999024-.15385437 .20199585-.18309021 .1559906-.18309021 .14199829-.18309021 .09700012-.18005371 .07998657-.14074707 .09599304-.14074707 .10899353-.14074707 .12298584-.1287384 .1329956-.11973572 .14299011-.10673523 .14299011-.08773804 .14299011-.056747438 .115997318-.052734376 .10598755-.052734376 .08299255-.052734376 .049987794-.068740848 .049987794-.11773682 .049987794-.16796875 .09399414-.20507813 .1559906-.20507813 .25898744-.20507813 .3619995-.11373901 .3899994-.00074768069L.48599244 .38136292Z"/>
<path id="font_3_3" d="M.68699648 .32714845C.70199587 .32714845 .72099307 .32714845 .72099307 .34713746 .72099307 .36714173 .70199587 .36714173 .6879883 .36714173H.08898926C.07499695 .36714173 .055999757 .36714173 .055999757 .34713746 .055999757 .32714845 .07499695 .32714845 .08999634 .32714845H.68699648M.6879883 .13284302C.70199587 .13284302 .72099307 .13284302 .72099307 .15284729 .72099307 .17285156 .70199587 .17285156 .68699648 .17285156H.08999634C.07499695 .17285156 .055999757 .17285156 .055999757 .15284729 .055999757 .13284302 .07499695 .13284302 .08898926 .13284302H.6879883Z"/>
<path id="font_2_1" d="M.36698915 .3996582H.45298768C.47299195 .3996582 .48298646 .3996582 .48298646 .41966249 .48298646 .43066407 .47299195 .43066407 .45599366 .43066407H.37298585L.3939972 .5449524C.397995 .5660095 .4119873 .6370239 .41799928 .6490326 .4269867 .66804507 .44400025 .68307498 .46499635 .68307498 .46899415 .68307498 .49499513 .68307498 .5139923 .66503909 .46998597 .661026 .45999146 .6260376 .45999146 .6110382 .45999146 .58802798 .47799684 .57603457 .49699403 .57603457 .522995 .57603457 .5519867 .5980377 .5519867 .6360321 .5519867 .6820679 .5059967 .7050781 .46499635 .7050781 .43099977 .7050781 .36799623 .68707278 .33799745 .58802798 .33198548 .56700137 .32899476 .5569763 .30499269 .43066407H.23599243C.21699524 .43066407 .20599365 .43066407 .20599365 .4116516 .20599365 .3996582 .21499634 .3996582 .23399353 .3996582H.2999878L.22499085 .0048828127C.20698548-.09207153 .18998719-.18309021 .13798523-.18309021 .13398743-.18309021 .10899353-.18309021 .08999634-.16506958 .13598633-.1620636 .14498902-.12606812 .14498902-.111068729 .14498902-.08807373 .1269989-.07606506 .10798645-.07606506 .08198547-.07606506 .052993776-.09806824 .052993776-.13606262 .052993776-.18109131 .09700012-.20507813 .13798523-.20507813 .19299317-.20507813 .23298645-.14607239 .25099183-.108062747 .2829895-.04508972 .30599977 .07583618 .30699159 .082839969L.36698915 .3996582Z"/>
<path id="font_3_1" d="M.33099366-.2400055C.33099366-.23701477 .33099366-.23500061 .31399537-.21800232 .18899536-.0920105 .15699768 .09700012 .15699768 .25 .15699768 .42399598 .19499207 .59799197 .31799317 .72299197 .33099366 .73498538 .33099366 .7369995 .33099366 .73999026 .33099366 .746994 .32699586 .75 .32099916 .75 .31098939 .75 .22099304 .6819916 .1619873 .5549927 .11099243 .44499208 .09899902 .33399964 .09899902 .25 .09899902 .17199707 .10998535 .050994874 .16499329-.06201172 .22499085-.18501282 .31098939-.25 .32099916-.25 .32699586-.25 .33099366-.24700928 .33099366-.2400055Z"/>
<path id="font_3_2" d="M.2889862 .25C.2889862 .32798768 .27799989 .44898988 .22299195 .56199648 .16299439 .68499758 .07699585 .75 .066986087 .75 .06098938 .75 .056991579 .74598696 .056991579 .73999026 .056991579 .7369995 .056991579 .73498538 .07598877 .71699526 .17399597 .6179962 .23098755 .45899964 .23098755 .25 .23098755 .07899475 .19400025-.09700012 .069992069-.2230072 .056991579-.23500061 .056991579-.23701477 .056991579-.2400055 .056991579-.2460022 .06098938-.25 .066986087-.25 .07699585-.25 .16699219-.18200684 .22599793-.055007936 .2769928 .054992677 .2889862 .16600037 .2889862 .25Z"/>
</defs>
<path transform="matrix(1.00002,0,0,-1.00008,10.479919,45.68661)" stroke-width=".09962" stroke-linecap="butt" stroke-miterlimit="10" stroke-linejoin="miter" fill="none" stroke="#7f807f" d="M-2.83484-28.3468H235.2786M-2.83484-14.17339H235.2786M-2.83484 0H235.2786M-2.83484 14.17339H235.2786M-2.83484 28.3468H235.2786M0-32.59886V38.26813M28.3468-32.59886V38.26813M56.69362-32.59886V38.26813M85.04042-32.59886V38.26813M113.38724-32.59886V38.26813M141.73404-32.59886V38.26813M170.08086-32.59886V38.26813M198.42766-32.59886V38.26813M226.77448-32.59886V38.26813M235.2786 38.26813"/>
<path transform="matrix(1.00002,0,0,-1.00008,10.479919,45.68661)" d="M23.33008-10.15797H33.36353V-.19926071H23.33008Z" fill="#ffffff"/>
<use data-text="1" xlink:href="#font_1_82" transform="matrix(4.9813997,0,0,-4.9816987,37.131456,52.52416)"/>
<path transform="matrix(1.00002,0,0,-1.00008,10.479919,45.68661)" d="M51.67688-10.15797H61.71033V-.19926071H51.67688Z" fill="#ffffff"/>
<use data-text="2" xlink:href="#font_1_107" transform="matrix(4.9813997,0,0,-4.9816987,65.47803,52.52416)"/>
<path transform="matrix(1.00002,0,0,-1.00008,10.479919,45.68661)" d="M80.0237-10.26755H90.057147V-.19925022H80.0237Z" fill="#ffffff"/>
<use data-text="3" xlink:href="#font_1_106" transform="matrix(4.9813997,0,0,-4.9816987,93.82559,52.52416)"/>
<path transform="matrix(1.00002,0,0,-1.00008,10.479919,45.68661)" d="M108.3705-10.21275H118.403949V-.19925022H108.3705Z" fill="#ffffff"/>
<use data-text="4" xlink:href="#font_1_57" transform="matrix(4.9813997,0,0,-4.9816987,122.17316,52.579164)"/>
<path transform="matrix(1.00002,0,0,-1.00008,10.479919,45.68661)" d="M136.71732-10.26755H146.75077V-.19925022H136.71732Z" fill="#ffffff"/>
<use data-text="5" xlink:href="#font_1_56" transform="matrix(4.9813997,0,0,-4.9816987,150.52072,52.52416)"/>
<path transform="matrix(1.00002,0,0,-1.00008,10.479919,45.68661)" d="M165.06412-10.26755H175.09757V-.19925022H165.06412Z" fill="#ffffff"/>
<use data-text="6" xlink:href="#font_1_101" transform="matrix(4.9813997,0,0,-4.9816987,178.86829,52.52416)"/>
<path transform="matrix(1.00002,0,0,-1.00008,10.479919,45.68661)" d="M193.41094-10.31738H203.44438V-.19925976H193.41094Z" fill="#ffffff"/>
<use data-text="7" xlink:href="#font_1_100" transform="matrix(4.9813997,0,0,-4.9816987,207.21585,52.57416)"/>
<path transform="matrix(1.00002,0,0,-1.00008,10.479919,45.68661)" d="M221.75774-10.26755H231.79119V-.19925022H221.75774Z" fill="#ffffff"/>
<use data-text="8" xlink:href="#font_1_51" transform="matrix(4.9813997,0,0,-4.9816987,235.56243,52.52416)"/>
<path transform="matrix(1.00002,0,0,-1.00008,10.479919,45.68661)" d="M-12.58391-33.32617H-.19927025V-23.367463H-12.58391Z" fill="#ffffff"/>
<use data-text="-" xlink:href="#font_1_64" transform="matrix(4.9813997,0,0,-4.9816987,1.2167358,75.69501)"/>
<use data-text="2" xlink:href="#font_1_107" transform="matrix(4.9813997,0,0,-4.9816987,3.567955,75.69501)"/>
<path transform="matrix(1.00002,0,0,-1.00008,10.479919,45.68661)" d="M-12.58391-19.15276H-.19927025V-9.19405H-12.58391Z" fill="#ffffff"/>
<use data-text="-" xlink:href="#font_1_64" transform="matrix(4.9813997,0,0,-4.9816987,1.2167358,61.51988)"/>
<use data-text="1" xlink:href="#font_1_82" transform="matrix(4.9813997,0,0,-4.9816987,3.567955,61.51988)"/>
<path transform="matrix(1.00002,0,0,-1.00008,10.479919,45.68661)" d="M-10.2327-5.03415H-.19925022V5.03415H-10.2327Z" fill="#ffffff"/>
<use data-text="0" xlink:href="#font_1_121" transform="matrix(4.9813997,0,0,-4.9816987,3.5677796,47.29074)"/>
<path transform="matrix(1.00002,0,0,-1.00008,10.479919,45.68661)" d="M-10.2327 9.19403H-.19925022V19.15274H-10.2327Z" fill="#ffffff"/>
<use data-text="1" xlink:href="#font_1_82" transform="matrix(4.9813997,0,0,-4.9816987,3.5677796,33.17061)"/>
<path transform="matrix(1.00002,0,0,-1.00008,10.479919,45.68661)" d="M-10.2327 23.36745H-.19925022V33.32616H-10.2327Z" fill="#ffffff"/>
<use data-text="2" xlink:href="#font_1_107" transform="matrix(4.9813997,0,0,-4.9816987,3.5677796,18.996478)"/>
<path transform="matrix(1.00002,0,0,-1.00008,10.479919,45.68661)" stroke-width=".3985" stroke-linecap="butt" stroke-miterlimit="10" stroke-linejoin="miter" fill="none" stroke="#000000" d="M-2.83484 0H234.82032"/>
<path transform="matrix(1.00002,0,0,-1.00008,245.30493,45.68661)" stroke-width=".31879" stroke-linecap="round" stroke-linejoin="round" fill="none" stroke="#000000" d="M-1.19551 1.59401C-1.09587 .99626 0 .09961 .29886 0 0-.09961-1.09587-.99626-1.19551-1.59401"/>
<use data-text="t" xlink:href="#font_2_2" transform="matrix(9.962799,0,0,-9.963397,243.96459,55.33538)"/>
<path transform="matrix(1.00002,0,0,-1.00008,10.479919,45.68661)" stroke-width=".3985" stroke-linecap="butt" stroke-miterlimit="10" stroke-linejoin="miter" fill="none" stroke="#000000" d="M0-32.59886V33.5578"/>
<path transform="matrix(0,-1.00008,-1.00002,-0,10.479919,12.126125)" stroke-width=".31879" stroke-linecap="round" stroke-linejoin="round" fill="none" stroke="#000000" d="M-1.19551 1.59401C-1.09587 .99626 0 .09961 .29886 0 0-.09961-1.09587-.99626-1.19551-1.59401"/>
<use data-text="y" xlink:href="#font_2_3" transform="matrix(9.962799,0,0,-9.963397,1.7177429,6.210453)"/>
<path transform="matrix(1.00002,0,0,-1.00008,10.479919,45.68661)" stroke-width="2.49069" stroke-linecap="round" stroke-miterlimit="10" stroke-linejoin="miter" fill="none" stroke="#000000" d="M0 28.3468H28.3468L56.69362 0 56.97691-28.3468 85.04042 0 113.38724 28.3468H141.73404L198.42766-28.3468 226.77448 28.3468"/>
<path transform="matrix(1.00002,0,0,-1.00008,10.479919,45.68661)" d="M192.61609 21.46497H235.07935V38.06887H192.61609Z" fill="#ffffff"/>
<use data-text="y" xlink:href="#font_2_3" transform="matrix(9.962799,0,0,-9.963397,206.42084,18.40843)"/>
<use data-text="=" xlink:href="#font_3_3" transform="matrix(9.962799,0,0,-9.963397,214.431,18.40843)"/>
<use data-text="f" xlink:href="#font_2_1" transform="matrix(9.962799,0,0,-9.963397,224.9472,18.40843)"/>
<use data-text="(" xlink:href="#font_3_1" transform="matrix(9.962799,0,0,-9.963397,230.89733,18.40843)"/>
<use data-text="t" xlink:href="#font_2_2" transform="matrix(9.962799,0,0,-9.963397,234.7714,18.40843)"/>
<use data-text=")" xlink:href="#font_3_2" transform="matrix(9.962799,0,0,-9.963397,238.36948,18.40843)"/>
</svg>
