<svg xmlns="http://www.w3.org/2000/svg" xmlns:xlink="http://www.w3.org/1999/xlink" xmlns:inkscape="http://www.inkscape.org/namespaces/inkscape" version="1.1" width="171" height="297" viewBox="0 0 171 297">
<defs>
<path id="font_1_1" d="M.6589966 .23046875C.6759949 .23046875 .69400027 .23046875 .69400027 .25045777 .69400027 .27046205 .6759949 .27046205 .6589966 .27046205H.117996219C.100997928 .27046205 .08299255 .27046205 .08299255 .25045777 .08299255 .23046875 .100997928 .23046875 .117996219 .23046875H.6589966Z"/>
<path id="font_2_4" d="M.1269989 .07699585 .23298645 .18003845C.3889923 .31811524 .44898988 .3721466 .44898988 .47216798 .44898988 .5860901 .35899354 .6660156 .23699951 .6660156 .12399292 .6660156 .049987794 .57411196 .049987794 .48516847 .049987794 .4291687 .099990848 .4291687 .102996829 .4291687 .11999512 .4291687 .15499878 .44117738 .15499878 .48217774 .15499878 .5081787 .13699341 .5341797 .101989749 .5341797 .09399414 .5341797 .09199524 .5341797 .08898926 .5331726 .11199951 .59806826 .1659851 .63500979 .22399903 .63500979 .31498719 .63500979 .35798646 .5541382 .35798646 .47216798 .35798646 .39215089 .30799867 .31311036 .25299073 .25108338L.06098938 .036987306C.049987794 .025985718 .049987794 .023986817 .049987794 0H.42099L.44898988 .17404175H.42399598C.4189911 .14402771 .4119873 .1000061 .4019928 .084991458 .394989 .07699585 .32899476 .07699585 .30699159 .07699585H.1269989Z"/>
<path id="font_2_3" d="M.2939911 .64004519C.2939911 .66400149 .2939911 .6660156 .2709961 .6660156 .20899964 .60227969 .12098694 .60227969 .08898926 .60227969V.57128909C.10899353 .57128909 .16799927 .57128909 .21998596 .5972748V.07902527C.21998596 .042999269 .21699524 .0309906 .1269989 .0309906H.09498596V0C.12998963 .0029907227 .21699524 .0029907227 .25698854 .0029907227 .29699708 .0029907227 .38398744 .0029907227 .4189911 0V.0309906H.3869934C.29699708 .0309906 .2939911 .041992189 .2939911 .07902527V.64004519Z"/>
<path id="font_2_5" d="M.2899933 .35191346C.37199403 .37893678 .42999269 .4490509 .42999269 .52809146 .42999269 .6100464 .34199525 .6660156 .24598694 .6660156 .14498902 .6660156 .068984989 .60606387 .068984989 .53009036 .068984989 .49710084 .09098816 .47808839 .11999512 .47808839 .15098572 .47808839 .17098999 .50009158 .17098999 .5290985 .17098999 .57910159 .12399292 .57910159 .10899353 .57910159 .13999939 .62802127 .20599365 .64100649 .24198914 .64100649 .2829895 .64100649 .33799745 .6190338 .33799745 .5290985 .33799745 .51708987 .33599855 .45906068 .30999757 .4149933 .27999879 .36691285 .24598694 .36390687 .22099304 .36291505 .21299744 .36190797 .18899536 .35990907 .18199158 .35990907 .17399597 .35890199 .16699219 .35791017 .16699219 .3479004 .16699219 .33691407 .17399597 .33691407 .19099427 .33691407H.23498535C.31698609 .33691407 .35398866 .2686615 .35398866 .17037964 .35398866 .034469606 .2849884 .0055389406 .24099732 .0055389406 .19799805 .0055389406 .12298584 .022491456 .08799744 .08137512 .12298584 .07637024 .1539917 .09837341 .1539917 .1363678 .1539917 .17237854 .1269989 .19238281 .09799194 .19238281 .07398987 .19238281 .041992189 .17837525 .041992189 .1343689 .041992189 .043441774 .1349945-.022460938 .24398804-.022460938 .3659973-.022460938 .45700074 .06838989 .45700074 .17037964 .45700074 .252594 .3939972 .33088685 .2899933 .35191346Z"/>
<path id="font_2_6" d="M.2939911 .16503906V.07800293C.2939911 .041992189 .2919922 .0309906 .21798706 .0309906H.19699097V0C.23799134 .0029907227 .2899933 .0029907227 .33198548 .0029907227 .37399293 .0029907227 .4269867 .0029907227 .46798707 0V.0309906H.44699098C.37298585 .0309906 .37098695 .041992189 .37098695 .07800293V.16503906H.47099305V.19602967H.37098695V.65075686C.37098695 .67074587 .37098695 .6767578 .35499574 .6767578 .34599305 .6767578 .34298707 .6767578 .33499146 .66474917L.027999878 .19602967V.16503906H.2939911M.2999878 .19602967H.055999757L.2999878 .5688019V.19602967Z"/>
<clipPath id="clip_3">
<path transform="matrix(1.00002,0,0,-1.00008,-10.960579,146.34767)" d="M12.05592 0H180.83893V139.41278H12.05592Z"/>
</clipPath>
<path id="font_4_2" d="M.33399964 .30233766C.33999635 .32835389 .36299134 .42037965 .43299867 .42037965 .43798829 .42037965 .46199037 .42037965 .48298646 .40734864 .45498658 .402359 .43499757 .37734986 .43499757 .35334779 .43499757 .33735658 .44599916 .31835938 .47299195 .31835938 .49499513 .31835938 .5269928 .3363495 .5269928 .37635804 .5269928 .42837525 .46798707 .4423828 .43399049 .4423828 .37599183 .4423828 .34098817 .38935853 .32899476 .36634828 .3039856 .43237306 .25 .4423828 .22099304 .4423828 .116989139 .4423828 .05999756 .3133545 .05999756 .28834535 .05999756 .27833558 .069992069 .27833558 .07199097 .27833558 .07998657 .27833558 .08299255 .28033448 .084991458 .28933717 .11898804 .39535523 .18499756 .42037965 .21899414 .42037965 .23799134 .42037965 .272995 .4113617 .272995 .35334779 .272995 .32235719 .2559967 .25532533 .21899414 .11528015 .20298767 .053268434 .16799927 .011245728 .12399292 .011245728 .117996219 .011245728 .09498596 .011245728 .07398987 .024276734 .09899902 .029266358 .12098694 .05027771 .12098694 .07827759 .12098694 .105270389 .09899902 .11328125 .083999637 .11328125 .053985597 .11328125 .0289917 .08728027 .0289917 .055267335 .0289917 .009246826 .07899475-.0107421879 .12298584-.0107421879 .18899536-.0107421879 .22499085 .059280397 .22799683 .0652771 .23999024 .028274537 .27598573-.0107421879 .33599855-.0107421879 .43899537-.0107421879 .49598695 .118270877 .49598695 .14328003 .49598695 .1532898 .4869995 .1532898 .48399354 .1532898 .47499085 .1532898 .47299195 .14929199 .47099305 .14228821 .43798829 .03527832 .36999513 .011245728 .33799745 .011245728 .29899598 .011245728 .2829895 .043273927 .2829895 .07727051 .2829895 .09927368 .2889862 .121276859 .2999878 .16529846L.33399964 .30233766Z"/>
<path id="font_4_1" d="M.36698915 .3996582H.45298768C.47299195 .3996582 .48298646 .3996582 .48298646 .41966249 .48298646 .43066407 .47299195 .43066407 .45599366 .43066407H.37298585L.3939972 .5449524C.397995 .5660095 .4119873 .6370239 .41799928 .6490326 .4269867 .66804507 .44400025 .68307498 .46499635 .68307498 .46899415 .68307498 .49499513 .68307498 .5139923 .66503909 .46998597 .661026 .45999146 .6260376 .45999146 .6110382 .45999146 .58802798 .47799684 .57603457 .49699403 .57603457 .522995 .57603457 .5519867 .5980377 .5519867 .6360321 .5519867 .6820679 .5059967 .7050781 .46499635 .7050781 .43099977 .7050781 .36799623 .68707278 .33799745 .58802798 .33198548 .56700137 .32899476 .5569763 .30499269 .43066407H.23599243C.21699524 .43066407 .20599365 .43066407 .20599365 .4116516 .20599365 .3996582 .21499634 .3996582 .23399353 .3996582H.2999878L.22499085 .0048828127C.20698548-.09207153 .18998719-.18309021 .13798523-.18309021 .13398743-.18309021 .10899353-.18309021 .08999634-.16506958 .13598633-.1620636 .14498902-.12606812 .14498902-.111068729 .14498902-.08807373 .1269989-.07606506 .10798645-.07606506 .08198547-.07606506 .052993776-.09806824 .052993776-.13606262 .052993776-.18109131 .09700012-.20507813 .13798523-.20507813 .19299317-.20507813 .23298645-.14607239 .25099183-.108062747 .2829895-.04508972 .30599977 .07583618 .30699159 .082839969L.36698915 .3996582Z"/>
<path id="font_2_1" d="M.33099366-.2400055C.33099366-.23701477 .33099366-.23500061 .31399537-.21800232 .18899536-.0920105 .15699768 .09700012 .15699768 .25 .15699768 .42399598 .19499207 .59799197 .31799317 .72299197 .33099366 .73498538 .33099366 .7369995 .33099366 .73999026 .33099366 .746994 .32699586 .75 .32099916 .75 .31098939 .75 .22099304 .6819916 .1619873 .5549927 .11099243 .44499208 .09899902 .33399964 .09899902 .25 .09899902 .17199707 .10998535 .050994874 .16499329-.06201172 .22499085-.18501282 .31098939-.25 .32099916-.25 .32699586-.25 .33099366-.24700928 .33099366-.2400055Z"/>
<path id="font_2_2" d="M.2889862 .25C.2889862 .32798768 .27799989 .44898988 .22299195 .56199648 .16299439 .68499758 .07699585 .75 .066986087 .75 .06098938 .75 .056991579 .74598696 .056991579 .73999026 .056991579 .7369995 .056991579 .73498538 .07598877 .71699526 .17399597 .6179962 .23098755 .45899964 .23098755 .25 .23098755 .07899475 .19400025-.09700012 .069992069-.2230072 .056991579-.23500061 .056991579-.23701477 .056991579-.2400055 .056991579-.2460022 .06098938-.25 .066986087-.25 .07699585-.25 .16699219-.18200684 .22599793-.055007936 .2769928 .054992677 .2889862 .16600037 .2889862 .25Z"/>
<clipPath id="clip_5">
<path transform="matrix(1.00002,0,0,-1.00008,1.095665,295.18058)" d="M0 0H168.783V139.41278H0Z"/>
</clipPath>
<path id="font_6_1" d="M.2899933 .4720459C.2979889 .4890442 .29899598 .49705506 .29899598 .5040436 .29899598 .53504946 .2709961 .5590515 .23999024 .5590515 .20199585 .5590515 .18998719 .52804568 .18499756 .51205447L.052993776 .07901001C.051986696 .07701111 .04798889 .06401062 .04798889 .06300354 .04798889 .05101013 .07899475 .041015626 .08699036 .041015626 .09399414 .041015626 .09498596 .043014528 .101989749 .058013917L.2899933 .4720459Z"/>
</defs>
<path transform="matrix(1.00002,0,0,-1.00008,-10.960579,146.34767)" stroke-width=".3985" stroke-linecap="butt" stroke-miterlimit="10" stroke-linejoin="miter" fill="none" stroke="#bfbfbf" d="M24.11185 0V139.41278M48.22371 0V139.41278M96.44742 0V139.41278M120.55928 0V139.41278M144.67115 0V139.41278M168.783 0V139.41278"/>
<path transform="matrix(1.00002,0,0,-1.00008,-10.960579,146.34767)" stroke-width=".3985" stroke-linecap="butt" stroke-miterlimit="10" stroke-linejoin="miter" fill="none" stroke="#bfbfbf" d="M12.05592 9.95805H180.83893M12.05592 29.87416H180.83893M12.05592 69.70639H180.83893M12.05592 89.6225H180.83893M12.05592 109.5386H180.83893M12.05592 129.45473H180.83893"/>
<path transform="matrix(1.00002,0,0,-1.00008,-10.960579,146.34767)" stroke-width=".19925" stroke-linecap="butt" stroke-miterlimit="10" stroke-linejoin="miter" fill="none" stroke="#7f807f" d="M24.11185 47.66429V51.91624M48.22371 47.66429V51.91624M96.44742 47.66429V51.91624M120.55928 47.66429V51.91624M144.67115 47.66429V51.91624M168.783 47.66429V51.91624"/>
<path transform="matrix(1.00002,0,0,-1.00008,-10.960579,146.34767)" stroke-width=".19925" stroke-linecap="butt" stroke-miterlimit="10" stroke-linejoin="miter" fill="none" stroke="#7f807f" d="M70.20967 9.95805H74.46144M70.20967 29.87416H74.46144M70.20967 69.70639H74.46144M70.20967 89.6225H74.46144M70.20967 109.5386H74.46144M70.20967 129.45473H74.46144"/>
<path transform="matrix(1.00002,0,0,-1.00008,-10.960579,146.34767)" stroke-width=".3985" stroke-linecap="butt" stroke-miterlimit="10" stroke-linejoin="miter" fill="none" stroke="#000000" d="M12.05592 49.79027H178.8464"/>
<path transform="matrix(1.00002,0,0,-1.00008,167.8894,96.55342)" d="M1.99252 0-1.19551 1.59401 0 0-1.19551-1.59401"/>
<path transform="matrix(1.00002,0,0,-1.00008,-10.960579,146.34767)" stroke-width=".3985" stroke-linecap="butt" stroke-miterlimit="10" stroke-linejoin="miter" fill="none" stroke="#000000" d="M72.33557 0V137.42026"/>
<path transform="matrix(0,-1.00008,-1.00002,-0,61.376443,8.916428)" d="M1.99252 0-1.19551 1.59401 0 0-1.19551-1.59401"/>
<use data-text="&#x2212;" xlink:href="#font_1_1" transform="matrix(9.962799,0,0,-9.963397,6.7867739,108.62065)"/>
<use data-text="2" xlink:href="#font_2_4" transform="matrix(9.962799,0,0,-9.963397,14.535927,108.62065)"/>
<use data-text="&#x2212;" xlink:href="#font_1_1" transform="matrix(9.962799,0,0,-9.963397,30.899262,108.62065)"/>
<use data-text="1" xlink:href="#font_2_3" transform="matrix(9.962799,0,0,-9.963397,38.648416,108.62065)"/>
<use data-text="1" xlink:href="#font_2_3" transform="matrix(9.962799,0,0,-9.963397,82.99831,108.62065)"/>
<use data-text="2" xlink:href="#font_2_4" transform="matrix(9.962799,0,0,-9.963397,107.11079,108.62065)"/>
<use data-text="3" xlink:href="#font_2_5" transform="matrix(9.962799,0,0,-9.963397,131.22226,108.62065)"/>
<use data-text="4" xlink:href="#font_2_6" transform="matrix(9.962799,0,0,-9.963397,155.33475,108.62065)"/>
<use data-text="&#x2212;" xlink:href="#font_1_1" transform="matrix(9.962799,0,0,-9.963397,43.0005,139.1841)"/>
<use data-text="2" xlink:href="#font_2_4" transform="matrix(9.962799,0,0,-9.963397,50.749654,139.1841)"/>
<use data-text="&#x2212;" xlink:href="#font_1_1" transform="matrix(9.962799,0,0,-9.963397,43.0005,119.2665)"/>
<use data-text="1" xlink:href="#font_2_3" transform="matrix(9.962799,0,0,-9.963397,50.749654,119.2665)"/>
<use data-text="1" xlink:href="#font_2_3" transform="matrix(9.962799,0,0,-9.963397,50.748659,79.84635)"/>
<use data-text="2" xlink:href="#font_2_4" transform="matrix(9.962799,0,0,-9.963397,50.748659,59.928758)"/>
<use data-text="3" xlink:href="#font_2_5" transform="matrix(9.962799,0,0,-9.963397,50.748659,40.01116)"/>
<use data-text="4" xlink:href="#font_2_6" transform="matrix(9.962799,0,0,-9.963397,50.748659,20.092568)"/>
<g clip-path="url(#clip_3)">
<path transform="matrix(1.00002,0,0,-1.00008,-10.960579,146.34767)" stroke-width="1.59404" stroke-linecap="butt" stroke-miterlimit="10" stroke-linejoin="miter" fill="none" stroke="#000000" d="M0 29.87416 1.82663 31.38293 3.65327 32.89172 5.4799 34.4005 7.30655 35.90929 9.1332 37.41809 10.95982 38.92688 12.78648 40.43565 14.61313 41.94444 16.43976 43.45322 18.2664 44.962 20.09303 46.47078 21.91968 47.97957 23.74634 49.48834 25.57297 50.99713 27.39961 52.5059 29.22626 54.01472 31.05289 55.5235 32.87953 57.03229 34.70619 58.54106 36.53282 60.04985 38.35947 61.55862 40.1861 63.06741 42.01274 64.57619 43.83939 66.08498 45.66602 67.59375 47.49268 69.10255 49.31932 70.61134 51.14595 72.12012 52.9726 73.6289 54.79924 75.13768 56.62587 76.64647 58.45253 78.15524 60.27916 79.66405 62.1058 81.17285 63.93245 82.68164 65.75908 84.19041 67.58572 85.6992 69.41238 87.20798 71.23901 88.71677 73.06566 90.22554 74.89229 91.73433 76.71893 93.2431 78.54558 94.75189 80.37222 96.26068 82.19887 97.76947 84.02551 99.27824 85.85214 100.78703 87.67879 102.29582 89.50543 103.80461 91.33206 105.31339 93.15872 106.82216 94.98535 108.33095 96.812 109.23746 98.63864 107.72867 100.46527 106.2199 102.29192 104.71112 104.11858 103.20232 105.9452 101.69354 107.77185 100.18475 109.5985 98.67598 111.42513 97.16718 113.25177 95.6584 115.07841 94.14961 116.90506 92.64084 118.7317 91.13205 120.55833 89.62326 122.38498 88.11446 124.21162 86.60568 126.03827 85.0969 127.86491 83.58812 129.69156 82.07933 131.51819 80.57056 133.34484 79.06177 135.17147 77.553 136.99811 76.0442 138.82477 74.5354 140.6514 73.02661 142.47805 71.51784 144.30469 70.00905 146.13132 68.50027 147.95796 66.99149 149.7846 65.48271 151.61125 63.97394 153.4379 62.46515 155.26453 60.95638 157.09117 59.44756 158.91782 57.93878 160.74446 56.43 162.5711 54.92122 164.39775 53.41243 166.22438 51.90366 168.05103 50.39487 169.87766 48.8861 171.7043 47.3773 173.53096 45.86853 175.35759 44.35971 177.18424 42.85094 179.01088 41.34213 180.83751 39.83336"/>
</g>
<use data-text="x" xlink:href="#font_4_2" transform="matrix(9.962799,0,0,-9.963397,160.70685,93.02241)"/>
<use data-text="f" xlink:href="#font_4_1" transform="matrix(9.962799,0,0,-9.963397,64.91094,9.389709)"/>
<use data-text="(" xlink:href="#font_2_1" transform="matrix(9.962799,0,0,-9.963397,70.86106,9.389709)"/>
<use data-text="x" xlink:href="#font_4_2" transform="matrix(9.962799,0,0,-9.963397,74.73614,9.389709)"/>
<use data-text=")" xlink:href="#font_2_2" transform="matrix(9.962799,0,0,-9.963397,80.43025,9.389709)"/>
<path transform="matrix(1.00002,0,0,-1.00008,1.095665,295.18058)" stroke-width=".3985" stroke-linecap="butt" stroke-miterlimit="10" stroke-linejoin="miter" fill="none" stroke="#bfbfbf" d="M12.05592 0V139.41278M36.16779 0V139.41278M84.3915 0V139.41278M108.50336 0V139.41278M132.6152 0V139.41278M156.72707 0V139.41278"/>
<path transform="matrix(1.00002,0,0,-1.00008,1.095665,295.18058)" stroke-width=".3985" stroke-linecap="butt" stroke-miterlimit="10" stroke-linejoin="miter" fill="none" stroke="#bfbfbf" d="M0 9.95805H168.783M0 29.87416H168.783M0 49.79027H168.783M0 89.6225H168.783M0 109.5386H168.783M0 129.45473H168.783"/>
<path transform="matrix(1.00002,0,0,-1.00008,1.095665,295.18058)" stroke-width=".19925" stroke-linecap="butt" stroke-miterlimit="10" stroke-linejoin="miter" fill="none" stroke="#7f807f" d="M12.05592 67.5804V71.83235M36.16779 67.5804V71.83235M84.3915 67.5804V71.83235M108.50336 67.5804V71.83235M132.6152 67.5804V71.83235M156.72707 67.5804V71.83235"/>
<path transform="matrix(1.00002,0,0,-1.00008,1.095665,295.18058)" stroke-width=".19925" stroke-linecap="butt" stroke-miterlimit="10" stroke-linejoin="miter" fill="none" stroke="#7f807f" d="M58.15375 9.95805H62.40552M58.15375 29.87416H62.40552M58.15375 49.79027H62.40552M58.15375 89.6225H62.40552M58.15375 109.5386H62.40552M58.15375 129.45473H62.40552"/>
<path transform="matrix(1.00002,0,0,-1.00008,1.095665,295.18058)" stroke-width=".3985" stroke-linecap="butt" stroke-miterlimit="10" stroke-linejoin="miter" fill="none" stroke="#000000" d="M0 69.70639H166.79048"/>
<path transform="matrix(1.00002,0,0,-1.00008,167.8895,225.4686)" d="M1.99252 0-1.19551 1.59401 0 0-1.19551-1.59401"/>
<path transform="matrix(1.00002,0,0,-1.00008,1.095665,295.18058)" stroke-width=".3985" stroke-linecap="butt" stroke-miterlimit="10" stroke-linejoin="miter" fill="none" stroke="#000000" d="M60.27963 0V137.42026"/>
<path transform="matrix(0,-1.00008,-1.00002,-0,61.3765,157.74933)" d="M1.99252 0-1.19551 1.59401 0 0-1.19551-1.59401"/>
<use data-text="&#x2212;" xlink:href="#font_1_1" transform="matrix(9.962799,0,0,-9.963397,6.7867815,237.53597)"/>
<use data-text="2" xlink:href="#font_2_4" transform="matrix(9.962799,0,0,-9.963397,14.535934,237.53597)"/>
<use data-text="&#x2212;" xlink:href="#font_1_1" transform="matrix(9.962799,0,0,-9.963397,30.899262,237.53597)"/>
<use data-text="1" xlink:href="#font_2_3" transform="matrix(9.962799,0,0,-9.963397,38.648416,237.53597)"/>
<use data-text="1" xlink:href="#font_2_3" transform="matrix(9.962799,0,0,-9.963397,82.99831,237.53597)"/>
<use data-text="2" xlink:href="#font_2_4" transform="matrix(9.962799,0,0,-9.963397,107.11079,237.53597)"/>
<use data-text="3" xlink:href="#font_2_5" transform="matrix(9.962799,0,0,-9.963397,131.22327,237.53597)"/>
<use data-text="4" xlink:href="#font_2_6" transform="matrix(9.962799,0,0,-9.963397,155.33475,237.53597)"/>
<use data-text="&#x2212;" xlink:href="#font_1_1" transform="matrix(9.962799,0,0,-9.963397,43.000505,288.017)"/>
<use data-text="3" xlink:href="#font_2_5" transform="matrix(9.962799,0,0,-9.963397,50.749658,288.017)"/>
<use data-text="&#x2212;" xlink:href="#font_1_1" transform="matrix(9.962799,0,0,-9.963397,43.000505,268.09944)"/>
<use data-text="2" xlink:href="#font_2_4" transform="matrix(9.962799,0,0,-9.963397,50.749658,268.09944)"/>
<use data-text="&#x2212;" xlink:href="#font_1_1" transform="matrix(9.962799,0,0,-9.963397,43.000505,248.18183)"/>
<use data-text="1" xlink:href="#font_2_3" transform="matrix(9.962799,0,0,-9.963397,50.749658,248.18183)"/>
<use data-text="1" xlink:href="#font_2_3" transform="matrix(9.962799,0,0,-9.963397,50.74966,208.76166)"/>
<use data-text="2" xlink:href="#font_2_4" transform="matrix(9.962799,0,0,-9.963397,50.74966,188.84406)"/>
<use data-text="3" xlink:href="#font_2_5" transform="matrix(9.962799,0,0,-9.963397,50.74966,168.92548)"/>
<g clip-path="url(#clip_5)">
</g>
<use data-text="x" xlink:href="#font_4_2" transform="matrix(9.962799,0,0,-9.963397,160.70487,221.93271)"/>
<use data-text="f" xlink:href="#font_4_1" transform="matrix(9.962799,0,0,-9.963397,64.90894,158.23162)"/>
<use data-text="&#x2032;" xlink:href="#font_6_1" transform="matrix(6.97394,0,0,-6.974358,70.859058,154.61632)"/>
<use data-text="(" xlink:href="#font_2_1" transform="matrix(9.962799,0,0,-9.963397,73.65411,158.23162)"/>
<use data-text="x" xlink:href="#font_4_2" transform="matrix(9.962799,0,0,-9.963397,77.52919,158.23162)"/>
<use data-text=")" xlink:href="#font_2_2" transform="matrix(9.962799,0,0,-9.963397,83.222309,158.23162)"/>
</svg>
