<svg xmlns="http://www.w3.org/2000/svg" xmlns:xlink="http://www.w3.org/1999/xlink" xmlns:inkscape="http://www.inkscape.org/namespaces/inkscape" version="1.1" width="171" height="297" viewBox="0 0 171 297">
<defs>
<path id="font_1_1" d="M.6589966 .23046875C.6759949 .23046875 .69400027 .23046875 .69400027 .25045777 .69400027 .27046205 .6759949 .27046205 .6589966 .27046205H.117996219C.100997928 .27046205 .08299255 .27046205 .08299255 .25045777 .08299255 .23046875 .100997928 .23046875 .117996219 .23046875H.6589966Z"/>
<path id="font_2_5" d="M.2899933 .35191346C.37199403 .37893678 .42999269 .4490509 .42999269 .52809146 .42999269 .6100464 .34199525 .6660156 .24598694 .6660156 .14498902 .6660156 .068984989 .60606387 .068984989 .53009036 .068984989 .49710084 .09098816 .47808839 .11999512 .47808839 .15098572 .47808839 .17098999 .50009158 .17098999 .5290985 .17098999 .57910159 .12399292 .57910159 .10899353 .57910159 .13999939 .62802127 .20599365 .64100649 .24198914 .64100649 .2829895 .64100649 .33799745 .6190338 .33799745 .5290985 .33799745 .51708987 .33599855 .45906068 .30999757 .4149933 .27999879 .36691285 .24598694 .36390687 .22099304 .36291505 .21299744 .36190797 .18899536 .35990907 .18199158 .35990907 .17399597 .35890199 .16699219 .35791017 .16699219 .3479004 .16699219 .33691407 .17399597 .33691407 .19099427 .33691407H.23498535C.31698609 .33691407 .35398866 .2686615 .35398866 .17037964 .35398866 .034469606 .2849884 .0055389406 .24099732 .0055389406 .19799805 .0055389406 .12298584 .022491456 .08799744 .08137512 .12298584 .07637024 .1539917 .09837341 .1539917 .1363678 .1539917 .17237854 .1269989 .19238281 .09799194 .19238281 .07398987 .19238281 .041992189 .17837525 .041992189 .1343689 .041992189 .043441774 .1349945-.022460938 .24398804-.022460938 .3659973-.022460938 .45700074 .06838989 .45700074 .17037964 .45700074 .252594 .3939972 .33088685 .2899933 .35191346Z"/>
<path id="font_2_4" d="M.1269989 .07699585 .23298645 .18003845C.3889923 .31811524 .44898988 .3721466 .44898988 .47216798 .44898988 .5860901 .35899354 .6660156 .23699951 .6660156 .12399292 .6660156 .049987794 .57411196 .049987794 .48516847 .049987794 .4291687 .099990848 .4291687 .102996829 .4291687 .11999512 .4291687 .15499878 .44117738 .15499878 .48217774 .15499878 .5081787 .13699341 .5341797 .101989749 .5341797 .09399414 .5341797 .09199524 .5341797 .08898926 .5331726 .11199951 .59806826 .1659851 .63500979 .22399903 .63500979 .31498719 .63500979 .35798646 .5541382 .35798646 .47216798 .35798646 .39215089 .30799867 .31311036 .25299073 .25108338L.06098938 .036987306C.049987794 .025985718 .049987794 .023986817 .049987794 0H.42099L.44898988 .17404175H.42399598C.4189911 .14402771 .4119873 .1000061 .4019928 .084991458 .394989 .07699585 .32899476 .07699585 .30699159 .07699585H.1269989Z"/>
<path id="font_2_3" d="M.2939911 .64004519C.2939911 .66400149 .2939911 .6660156 .2709961 .6660156 .20899964 .60227969 .12098694 .60227969 .08898926 .60227969V.57128909C.10899353 .57128909 .16799927 .57128909 .21998596 .5972748V.07902527C.21998596 .042999269 .21699524 .0309906 .1269989 .0309906H.09498596V0C.12998963 .0029907227 .21699524 .0029907227 .25698854 .0029907227 .29699708 .0029907227 .38398744 .0029907227 .4189911 0V.0309906H.3869934C.29699708 .0309906 .2939911 .041992189 .2939911 .07902527V.64004519Z"/>
<clipPath id="clip_3">
<path transform="matrix(1.00002,0,0,-1.00008,1.095665,146.34767)" d="M0 0H168.783V139.41278H0Z"/>
</clipPath>
<path id="font_4_2" d="M.33399964 .30233766C.33999635 .32835389 .36299134 .42037965 .43299867 .42037965 .43798829 .42037965 .46199037 .42037965 .48298646 .40734864 .45498658 .402359 .43499757 .37734986 .43499757 .35334779 .43499757 .33735658 .44599916 .31835938 .47299195 .31835938 .49499513 .31835938 .5269928 .3363495 .5269928 .37635804 .5269928 .42837525 .46798707 .4423828 .43399049 .4423828 .37599183 .4423828 .34098817 .38935853 .32899476 .36634828 .3039856 .43237306 .25 .4423828 .22099304 .4423828 .116989139 .4423828 .05999756 .3133545 .05999756 .28834535 .05999756 .27833558 .069992069 .27833558 .07199097 .27833558 .07998657 .27833558 .08299255 .28033448 .084991458 .28933717 .11898804 .39535523 .18499756 .42037965 .21899414 .42037965 .23799134 .42037965 .272995 .4113617 .272995 .35334779 .272995 .32235719 .2559967 .25532533 .21899414 .11528015 .20298767 .053268434 .16799927 .011245728 .12399292 .011245728 .117996219 .011245728 .09498596 .011245728 .07398987 .024276734 .09899902 .029266358 .12098694 .05027771 .12098694 .07827759 .12098694 .105270389 .09899902 .11328125 .083999637 .11328125 .053985597 .11328125 .0289917 .08728027 .0289917 .055267335 .0289917 .009246826 .07899475-.0107421879 .12298584-.0107421879 .18899536-.0107421879 .22499085 .059280397 .22799683 .0652771 .23999024 .028274537 .27598573-.0107421879 .33599855-.0107421879 .43899537-.0107421879 .49598695 .118270877 .49598695 .14328003 .49598695 .1532898 .4869995 .1532898 .48399354 .1532898 .47499085 .1532898 .47299195 .14929199 .47099305 .14228821 .43798829 .03527832 .36999513 .011245728 .33799745 .011245728 .29899598 .011245728 .2829895 .043273927 .2829895 .07727051 .2829895 .09927368 .2889862 .121276859 .2999878 .16529846L.33399964 .30233766Z"/>
<path id="font_4_1" d="M.36698915 .3996582H.45298768C.47299195 .3996582 .48298646 .3996582 .48298646 .41966249 .48298646 .43066407 .47299195 .43066407 .45599366 .43066407H.37298585L.3939972 .5449524C.397995 .5660095 .4119873 .6370239 .41799928 .6490326 .4269867 .66804507 .44400025 .68307498 .46499635 .68307498 .46899415 .68307498 .49499513 .68307498 .5139923 .66503909 .46998597 .661026 .45999146 .6260376 .45999146 .6110382 .45999146 .58802798 .47799684 .57603457 .49699403 .57603457 .522995 .57603457 .5519867 .5980377 .5519867 .6360321 .5519867 .6820679 .5059967 .7050781 .46499635 .7050781 .43099977 .7050781 .36799623 .68707278 .33799745 .58802798 .33198548 .56700137 .32899476 .5569763 .30499269 .43066407H.23599243C.21699524 .43066407 .20599365 .43066407 .20599365 .4116516 .20599365 .3996582 .21499634 .3996582 .23399353 .3996582H.2999878L.22499085 .0048828127C.20698548-.09207153 .18998719-.18309021 .13798523-.18309021 .13398743-.18309021 .10899353-.18309021 .08999634-.16506958 .13598633-.1620636 .14498902-.12606812 .14498902-.111068729 .14498902-.08807373 .1269989-.07606506 .10798645-.07606506 .08198547-.07606506 .052993776-.09806824 .052993776-.13606262 .052993776-.18109131 .09700012-.20507813 .13798523-.20507813 .19299317-.20507813 .23298645-.14607239 .25099183-.108062747 .2829895-.04508972 .30599977 .07583618 .30699159 .082839969L.36698915 .3996582Z"/>
<path id="font_2_1" d="M.33099366-.2400055C.33099366-.23701477 .33099366-.23500061 .31399537-.21800232 .18899536-.0920105 .15699768 .09700012 .15699768 .25 .15699768 .42399598 .19499207 .59799197 .31799317 .72299197 .33099366 .73498538 .33099366 .7369995 .33099366 .73999026 .33099366 .746994 .32699586 .75 .32099916 .75 .31098939 .75 .22099304 .6819916 .1619873 .5549927 .11099243 .44499208 .09899902 .33399964 .09899902 .25 .09899902 .17199707 .10998535 .050994874 .16499329-.06201172 .22499085-.18501282 .31098939-.25 .32099916-.25 .32699586-.25 .33099366-.24700928 .33099366-.2400055Z"/>
<path id="font_2_2" d="M.2889862 .25C.2889862 .32798768 .27799989 .44898988 .22299195 .56199648 .16299439 .68499758 .07699585 .75 .066986087 .75 .06098938 .75 .056991579 .74598696 .056991579 .73999026 .056991579 .7369995 .056991579 .73498538 .07598877 .71699526 .17399597 .6179962 .23098755 .45899964 .23098755 .25 .23098755 .07899475 .19400025-.09700012 .069992069-.2230072 .056991579-.23500061 .056991579-.23701477 .056991579-.2400055 .056991579-.2460022 .06098938-.25 .066986087-.25 .07699585-.25 .16699219-.18200684 .22599793-.055007936 .2769928 .054992677 .2889862 .16600037 .2889862 .25Z"/>
<clipPath id="clip_5">
<path transform="matrix(1.00002,0,0,-1.00008,1.095665,295.18058)" d="M0 0H168.783V139.41278H0Z"/>
</clipPath>
<path id="font_6_1" d="M.2899933 .4720459C.2979889 .4890442 .29899598 .49705506 .29899598 .5040436 .29899598 .53504946 .2709961 .5590515 .23999024 .5590515 .20199585 .5590515 .18998719 .52804568 .18499756 .51205447L.052993776 .07901001C.051986696 .07701111 .04798889 .06401062 .04798889 .06300354 .04798889 .05101013 .07899475 .041015626 .08699036 .041015626 .09399414 .041015626 .09498596 .043014528 .101989749 .058013917L.2899933 .4720459Z"/>
</defs>
<path transform="matrix(1.00002,0,0,-1.00008,1.095665,146.34767)" stroke-width=".3985" stroke-linecap="butt" stroke-miterlimit="10" stroke-linejoin="miter" fill="none" stroke="#bfbfbf" d="M12.05592 0V139.41278M36.16779 0V139.41278M60.27963 0V139.41278M108.50336 0V139.41278M132.6152 0V139.41278M156.72707 0V139.41278"/>
<path transform="matrix(1.00002,0,0,-1.00008,1.095665,146.34767)" stroke-width=".3985" stroke-linecap="butt" stroke-miterlimit="10" stroke-linejoin="miter" fill="none" stroke="#bfbfbf" d="M0 29.87416H168.783M0 49.79027H168.783M0 89.6225H168.783M0 109.5386H168.783M0 129.45473H168.783"/>
<path transform="matrix(1.00002,0,0,-1.00008,1.095665,146.34767)" stroke-width=".19925" stroke-linecap="butt" stroke-miterlimit="10" stroke-linejoin="miter" fill="none" stroke="#7f807f" d="M12.05592 67.5804V71.83235M36.16779 67.5804V71.83235M60.27963 67.5804V71.83235M108.50336 67.5804V71.83235M132.6152 67.5804V71.83235M156.72707 67.5804V71.83235"/>
<path transform="matrix(1.00002,0,0,-1.00008,1.095665,146.34767)" stroke-width=".19925" stroke-linecap="butt" stroke-miterlimit="10" stroke-linejoin="miter" fill="none" stroke="#7f807f" d="M82.26561 29.87416H86.51736M82.26561 49.79027H86.51736M82.26561 89.6225H86.51736M82.26561 109.5386H86.51736M82.26561 129.45473H86.51736"/>
<path transform="matrix(1.00002,0,0,-1.00008,1.095665,146.34767)" stroke-width=".3985" stroke-linecap="butt" stroke-miterlimit="10" stroke-linejoin="miter" fill="none" stroke="#000000" d="M0 69.70639H166.79048"/>
<path transform="matrix(1.00002,0,0,-1.00008,167.8895,76.635707)" d="M1.99252 0-1.19551 1.59401 0 0-1.19551-1.59401"/>
<path transform="matrix(1.00002,0,0,-1.00008,1.095665,146.34767)" stroke-width=".3985" stroke-linecap="butt" stroke-miterlimit="10" stroke-linejoin="miter" fill="none" stroke="#000000" d="M84.3915 0V137.42026"/>
<path transform="matrix(0,-1.00008,-1.00002,-0,85.48886,8.916428)" d="M1.99252 0-1.19551 1.59401 0 0-1.19551-1.59401"/>
<use data-text="&#x2212;" xlink:href="#font_1_1" transform="matrix(9.962799,0,0,-9.963397,6.7867815,88.703067)"/>
<use data-text="3" xlink:href="#font_2_5" transform="matrix(9.962799,0,0,-9.963397,14.535934,88.703067)"/>
<use data-text="&#x2212;" xlink:href="#font_1_1" transform="matrix(9.962799,0,0,-9.963397,30.899262,88.703067)"/>
<use data-text="2" xlink:href="#font_2_4" transform="matrix(9.962799,0,0,-9.963397,38.648416,88.703067)"/>
<use data-text="&#x2212;" xlink:href="#font_1_1" transform="matrix(9.962799,0,0,-9.963397,55.011747,88.703067)"/>
<use data-text="1" xlink:href="#font_2_3" transform="matrix(9.962799,0,0,-9.963397,62.7609,88.703067)"/>
<use data-text="1" xlink:href="#font_2_3" transform="matrix(9.962799,0,0,-9.963397,107.11079,88.703067)"/>
<use data-text="2" xlink:href="#font_2_4" transform="matrix(9.962799,0,0,-9.963397,131.22327,88.703067)"/>
<use data-text="3" xlink:href="#font_2_5" transform="matrix(9.962799,0,0,-9.963397,155.33475,88.703067)"/>
<use data-text="&#x2212;" xlink:href="#font_1_1" transform="matrix(9.962799,0,0,-9.963397,67.11298,119.2665)"/>
<use data-text="2" xlink:href="#font_2_4" transform="matrix(9.962799,0,0,-9.963397,74.86214,119.2665)"/>
<use data-text="&#x2212;" xlink:href="#font_1_1" transform="matrix(9.962799,0,0,-9.963397,67.11298,99.348918)"/>
<use data-text="1" xlink:href="#font_2_3" transform="matrix(9.962799,0,0,-9.963397,74.86214,99.348918)"/>
<use data-text="1" xlink:href="#font_2_3" transform="matrix(9.962799,0,0,-9.963397,74.861148,59.928758)"/>
<use data-text="2" xlink:href="#font_2_4" transform="matrix(9.962799,0,0,-9.963397,74.861148,40.01116)"/>
<use data-text="3" xlink:href="#font_2_5" transform="matrix(9.962799,0,0,-9.963397,74.861148,20.092568)"/>
<g clip-path="url(#clip_3)">
<path transform="matrix(1.00002,0,0,-1.00008,1.095665,146.34767)" stroke-width="1.59404" stroke-linecap="butt" stroke-miterlimit="10" stroke-linejoin="miter" fill="none" stroke="#000000" d="M12.05592 76.96426 13.51721 77.11476 14.9785 77.26813 16.4398 77.42348 17.9011 77.58319 19.36238 77.74632 20.8237 77.91162 22.28499 78.0791 23.74628 78.25238 25.20758 78.42764 26.66887 78.60887 28.13017 78.7921 29.59146 78.97932 31.05275 79.17052 32.51405 79.36389 33.97536 79.56326 35.43665 79.7662 36.89795 79.97353 38.35924 80.18463 39.82053 80.40172 41.28183 80.623 42.74312 80.84605 44.20442 81.07689 45.66571 81.3103 47.12701 81.54929 48.58832 81.79405 50.0496 82.04341 51.5109 82.29614 52.9722 82.55507 54.43349 82.82014 55.89478 83.09119 57.35608 83.36584 58.81737 83.64885 60.27869 83.93565 61.73997 84.2286 63.20126 84.52736 64.66257 84.83226 66.12386 85.14494 67.58516 85.4618 69.04645 85.78644 70.50774 86.11925 71.96904 86.45583 73.43034 86.80237 74.89165 87.1529 76.35294 87.51337 77.81422 87.88023 79.27553 88.25465 80.73682 88.63506 82.19812 89.0256 83.65941 89.42412 85.12071 89.82603 86.58202 90.2403 88.0433 90.6633 89.50461 91.09488 90.9659 91.53543 92.4272 91.98494 93.88849 92.4438 95.3498 92.91243 96.81108 93.39021 98.27237 93.87817 99.73369 94.37646 101.19498 94.88432 102.65628 95.40294 104.11757 95.93192 105.57886 96.47263 107.04016 97.02391 108.50145 97.58633 109.96275 98.16013 111.42404 98.74765 112.88535 99.34494 114.34665 99.95557 115.80794 100.57855 117.26924 101.21486 118.73053 101.86333 120.19182 102.52554 121.65312 103.20229 123.11441 103.89218 124.5757 104.59583 126.03702 105.315 127.4983 106.0487 128.9596 106.79655 130.4209 107.56094 131.88219 108.34123 133.34349 109.1365 134.80478 109.94888 136.26607 110.77739 137.72737 111.62383 139.18868 112.48698 140.64997 113.36847 142.11127 114.26749 143.57256 115.1862 145.03385 116.12288 146.49515 117.07864 147.95644 118.05472 149.41774 119.05014 150.87903 120.06686 152.34033 121.1043 153.80164 122.16302 155.26293 123.24428 156.72422 124.34682"/>
</g>
<use data-text="x" xlink:href="#font_4_2" transform="matrix(9.962799,0,0,-9.963397,160.70487,73.099819)"/>
<use data-text="f" xlink:href="#font_4_1" transform="matrix(9.962799,0,0,-9.963397,89.02543,9.389709)"/>
<use data-text="(" xlink:href="#font_2_1" transform="matrix(9.962799,0,0,-9.963397,94.97554,9.389709)"/>
<use data-text="x" xlink:href="#font_4_2" transform="matrix(9.962799,0,0,-9.963397,98.84962,9.389709)"/>
<use data-text=")" xlink:href="#font_2_2" transform="matrix(9.962799,0,0,-9.963397,104.54373,9.389709)"/>
<path transform="matrix(1.00002,0,0,-1.00008,1.095665,295.18058)" stroke-width=".3985" stroke-linecap="butt" stroke-miterlimit="10" stroke-linejoin="miter" fill="none" stroke="#bfbfbf" d="M12.05592 0V139.41278M36.16779 0V139.41278M60.27963 0V139.41278M108.50336 0V139.41278M132.6152 0V139.41278M156.72707 0V139.41278"/>
<path transform="matrix(1.00002,0,0,-1.00008,1.095665,295.18058)" stroke-width=".3985" stroke-linecap="butt" stroke-miterlimit="10" stroke-linejoin="miter" fill="none" stroke="#bfbfbf" d="M0 9.95805H168.783M0 29.87416H168.783M0 49.79027H168.783M0 89.6225H168.783M0 109.5386H168.783M0 129.45473H168.783"/>
<path transform="matrix(1.00002,0,0,-1.00008,1.095665,295.18058)" stroke-width=".19925" stroke-linecap="butt" stroke-miterlimit="10" stroke-linejoin="miter" fill="none" stroke="#7f807f" d="M12.05592 67.5804V71.83235M36.16779 67.5804V71.83235M60.27963 67.5804V71.83235M108.50336 67.5804V71.83235M132.6152 67.5804V71.83235M156.72707 67.5804V71.83235"/>
<path transform="matrix(1.00002,0,0,-1.00008,1.095665,295.18058)" stroke-width=".19925" stroke-linecap="butt" stroke-miterlimit="10" stroke-linejoin="miter" fill="none" stroke="#7f807f" d="M82.26561 9.95805H86.51736M82.26561 29.87416H86.51736M82.26561 49.79027H86.51736M82.26561 89.6225H86.51736M82.26561 109.5386H86.51736M82.26561 129.45473H86.51736"/>
<path transform="matrix(1.00002,0,0,-1.00008,1.095665,295.18058)" stroke-width=".3985" stroke-linecap="butt" stroke-miterlimit="10" stroke-linejoin="miter" fill="none" stroke="#000000" d="M0 69.70639H166.79048"/>
<path transform="matrix(1.00002,0,0,-1.00008,167.8895,225.4686)" d="M1.99252 0-1.19551 1.59401 0 0-1.19551-1.59401"/>
<path transform="matrix(1.00002,0,0,-1.00008,1.095665,295.18058)" stroke-width=".3985" stroke-linecap="butt" stroke-miterlimit="10" stroke-linejoin="miter" fill="none" stroke="#000000" d="M84.3915 0V137.42026"/>
<path transform="matrix(0,-1.00008,-1.00002,-0,85.48886,157.74933)" d="M1.99252 0-1.19551 1.59401 0 0-1.19551-1.59401"/>
<use data-text="&#x2212;" xlink:href="#font_1_1" transform="matrix(9.962799,0,0,-9.963397,6.7867815,237.53597)"/>
<use data-text="3" xlink:href="#font_2_5" transform="matrix(9.962799,0,0,-9.963397,14.535934,237.53597)"/>
<use data-text="&#x2212;" xlink:href="#font_1_1" transform="matrix(9.962799,0,0,-9.963397,30.899262,237.53597)"/>
<use data-text="2" xlink:href="#font_2_4" transform="matrix(9.962799,0,0,-9.963397,38.648416,237.53597)"/>
<use data-text="&#x2212;" xlink:href="#font_1_1" transform="matrix(9.962799,0,0,-9.963397,55.011747,237.53597)"/>
<use data-text="1" xlink:href="#font_2_3" transform="matrix(9.962799,0,0,-9.963397,62.7609,237.53597)"/>
<use data-text="1" xlink:href="#font_2_3" transform="matrix(9.962799,0,0,-9.963397,107.11079,237.53597)"/>
<use data-text="2" xlink:href="#font_2_4" transform="matrix(9.962799,0,0,-9.963397,131.22327,237.53597)"/>
<use data-text="3" xlink:href="#font_2_5" transform="matrix(9.962799,0,0,-9.963397,155.33475,237.53597)"/>
<use data-text="&#x2212;" xlink:href="#font_1_1" transform="matrix(9.962799,0,0,-9.963397,67.11298,288.017)"/>
<use data-text="3" xlink:href="#font_2_5" transform="matrix(9.962799,0,0,-9.963397,74.86214,288.017)"/>
<use data-text="&#x2212;" xlink:href="#font_1_1" transform="matrix(9.962799,0,0,-9.963397,67.11298,268.09944)"/>
<use data-text="2" xlink:href="#font_2_4" transform="matrix(9.962799,0,0,-9.963397,74.86214,268.09944)"/>
<use data-text="&#x2212;" xlink:href="#font_1_1" transform="matrix(9.962799,0,0,-9.963397,67.11298,248.18183)"/>
<use data-text="1" xlink:href="#font_2_3" transform="matrix(9.962799,0,0,-9.963397,74.86214,248.18183)"/>
<use data-text="1" xlink:href="#font_2_3" transform="matrix(9.962799,0,0,-9.963397,74.861148,208.76166)"/>
<use data-text="2" xlink:href="#font_2_4" transform="matrix(9.962799,0,0,-9.963397,74.861148,188.84406)"/>
<use data-text="3" xlink:href="#font_2_5" transform="matrix(9.962799,0,0,-9.963397,74.861148,168.92548)"/>
<g clip-path="url(#clip_5)">
</g>
<use data-text="x" xlink:href="#font_4_2" transform="matrix(9.962799,0,0,-9.963397,160.70487,221.93271)"/>
<use data-text="f" xlink:href="#font_4_1" transform="matrix(9.962799,0,0,-9.963397,89.02543,158.23162)"/>
<use data-text="&#x2032;" xlink:href="#font_6_1" transform="matrix(6.97394,0,0,-6.974358,94.97554,154.61632)"/>
<use data-text="(" xlink:href="#font_2_1" transform="matrix(9.962799,0,0,-9.963397,97.7706,158.23162)"/>
<use data-text="x" xlink:href="#font_4_2" transform="matrix(9.962799,0,0,-9.963397,101.645679,158.23162)"/>
<use data-text=")" xlink:href="#font_2_2" transform="matrix(9.962799,0,0,-9.963397,107.33879,158.23162)"/>
</svg>
